<svg xmlns:xlink="http://www.w3.org/1999/xlink" aria-label="Procreate Dreams™" class="home-product-tile__wordmark dreams-wordmark home-product-tile__wordmark" style="color:white;" aria-hidden="true" width="163" height="15" viewBox="0 0 163 15" fill="none" xmlns="http://www.w3.org/2000/svg"><g clip-path="url(#clip0_2170_117)" fill="none"><path fill-rule="evenodd" clip-rule="evenodd" d="M0 0H6.38626C9.48157 0 11.4935 1.92435 11.4935 4.55828C11.4935 7.19221 9.48449 9.1808 6.38918 9.1808H3.28511V14.6414H0V0ZM3.28219 6.71331H5.884C7.39077 6.71331 8.26972 5.68836 8.26972 4.55828C8.26972 3.4282 7.39077 2.46748 5.884 2.46748H3.28219V6.71331ZM19.664 9.30636C19.664 6.02417 21.819 3.74357 25.1859 3.74357C28.5732 3.74357 30.7282 5.98037 30.7282 9.30636C30.7282 12.6324 28.5527 14.913 25.1859 14.913C21.819 14.913 19.664 12.5886 19.664 9.30636ZM22.549 9.30928C22.549 11.1898 23.5126 12.5506 25.1859 12.5506C26.8824 12.5506 27.8432 11.1489 27.8432 9.30928C27.8432 7.46962 26.862 6.10885 25.1859 6.10885C23.5097 6.10885 22.549 7.42874 22.549 9.30928ZM33.6133 9.4144C33.6133 11.7154 34.8689 13.4091 37.024 13.4091L37.0269 13.412C38.887 13.412 39.871 12.2849 40.1222 10.7781H41.8363C41.5618 13.1405 39.8477 14.8779 37.024 14.8779C33.8848 14.8779 31.9401 12.5564 31.9401 9.41732C31.9401 6.27822 33.8878 3.95674 37.024 3.95674C39.7221 3.95674 41.4158 5.58907 41.772 7.80543H40.0141C39.7221 6.44466 38.7819 5.41971 37.024 5.41971C34.8689 5.41971 33.6133 7.11337 33.6133 9.4144ZM49.3906 9.47573C49.3906 6.25486 51.4405 3.95382 54.4745 3.95382V3.94798C57.5085 3.94798 59.2226 6.27238 59.2226 9.40856V9.76482H51.1894V9.8495C51.3149 11.9637 52.5706 13.4062 54.3898 13.4062C55.5607 13.4062 56.7317 12.8017 57.234 11.2949H59.1379C58.5509 13.5347 56.793 14.8721 54.4307 14.8721C51.2945 14.8721 49.3906 12.6966 49.3906 9.47573ZM54.454 5.41679C52.6552 5.41679 51.5456 6.58775 51.2332 8.47121H57.488C57.4442 6.71331 56.3579 5.41679 54.454 5.41679ZM78.2704 9.47573C78.2704 6.25486 80.3203 3.95382 83.3543 3.95382V3.94798C86.3883 3.94798 88.1023 6.27238 88.1023 9.40856V9.76482H80.0692V9.8495C80.1947 11.9637 81.4504 13.4062 83.2696 13.4062C84.4405 13.4062 85.6115 12.8017 86.1138 11.2949H88.0177C87.4307 13.5347 85.6728 14.8721 83.3105 14.8721C80.1743 14.8721 78.2704 12.6966 78.2704 9.47573ZM83.3338 5.41679C81.535 5.41679 80.4254 6.58775 80.113 8.47121H86.3678C86.324 6.71331 85.2377 5.41679 83.3338 5.41679ZM45.1681 4.1845V6.73375V6.73667C45.8981 5.08098 47.2969 4.31299 49.1278 4.14362V6.00665C46.4851 5.98621 45.1681 7.27689 45.1681 10.1473V14.6443H43.454V4.1845H45.1681ZM15.4707 4.01514V6.69287C16.0752 4.93497 17.3396 4.1261 19.2201 3.9509V6.9148C16.4548 6.83888 15.4707 8.06824 15.4707 10.6467V14.6414H12.5214V4.01514H15.4707ZM72.3513 0.838069H74.0654V4.18742H77.8937V5.65039H74.0654V11.1927C74.0654 12.5506 74.7954 13.2835 76.1767 13.2835C76.5884 13.2835 77.0644 13.231 77.5725 13.0558V14.5771C77.1578 14.7144 76.6877 14.7903 76.1767 14.7903C73.8347 14.7903 72.3484 13.4091 72.3484 11.1927V5.65039H70.1525V4.19034H70.83H71.0665H71.6855C72.0535 4.19034 72.3513 3.89249 72.3513 3.52456V0.838069Z" fill="#FFFFFF"></path><path fill-rule="evenodd" clip-rule="evenodd" d="M65.1883 3.95382C62.6566 3.95382 61.0476 5.31458 60.9834 7.49006H62.6975C62.7822 6.21397 63.7429 5.41971 65.1854 5.41971C66.7126 5.41971 67.6529 6.33954 67.6529 7.82587V8.28724H66.2104C62.0054 8.28724 60.522 9.77358 60.522 11.7592C60.522 13.5989 61.8828 14.7494 63.9327 14.7494C65.8366 14.7494 67.1127 13.7858 67.6149 12.9915H67.6558V14.6443H69.329V7.82587C69.329 5.44015 67.7405 3.95674 65.1883 3.95674V3.95382ZM64.3094 13.3682C66.149 13.3682 67.6558 12.0483 67.6558 10.6058L67.6529 10.6087V9.62465H66.2104C63.1151 9.62465 62.1952 10.5445 62.1952 11.7154C62.1952 12.7608 63.0128 13.3682 64.3094 13.3682Z" fill="#FFFFFF"></path><path d="M116.445 4.0561C113.545 4.0561 111.577 6.35422 111.577 9.48457C111.577 12.6149 113.463 14.8722 116.465 14.8722C118.743 14.8722 120.463 13.5669 121.003 11.371H119.946C119.47 13.1318 118.083 14.0224 116.445 14.0224C114.147 14.0224 112.634 12.3025 112.57 9.67146V9.56633H121.105V9.35901C121.085 6.25202 119.324 4.0561 116.445 4.0561ZM112.59 8.82171C112.818 6.50023 114.246 4.88541 116.445 4.88541C118.644 4.88541 120.072 6.47979 120.133 8.82171H112.593H112.59ZM127.112 4.0561C124.75 4.0561 123.176 5.25627 123.03 7.43174H123.982C124.148 5.77312 125.348 4.88249 127.109 4.88249C128.87 4.88249 130.093 5.96001 130.093 7.70039V8.59102H127.938C124.043 8.59102 122.615 9.99851 122.615 11.99C122.615 13.6691 123.961 14.8079 125.929 14.8079C126.686 14.8079 127.337 14.6794 127.889 14.4604C127.903 14.4546 127.918 14.4517 127.933 14.4458C127.95 14.44 127.965 14.4312 127.982 14.4225C128.087 14.3787 128.19 14.329 128.286 14.2794C128.324 14.2589 128.365 14.2414 128.403 14.221C128.409 14.2181 128.417 14.2122 128.423 14.2093C128.817 13.9932 129.182 13.7216 129.515 13.3946C129.737 13.1756 129.924 12.9332 130.093 12.6792V14.6444H131.025V7.70331C131.025 5.46651 129.431 4.0561 127.109 4.0561H127.112ZM130.096 10.603C129.994 12.6324 128.397 14.002 126.119 14.002C124.586 14.002 123.549 13.1931 123.549 11.9725C123.549 10.4394 124.668 9.36193 127.941 9.36193H130.096V10.6059V10.603ZM145.065 4.0415C143.453 4.0415 142.168 4.94382 141.511 6.52943C141.058 4.94674 139.803 4.0415 138.042 4.0415C136.48 4.0415 135.247 4.88541 134.617 6.3659V4.28971H133.697V14.6415H134.658V9.17212C134.684 7.11637 135.557 4.91753 137.916 4.91753C139.776 4.91753 140.761 6.04469 140.761 8.17637V14.6385H141.721V9.1692C141.736 7.11345 142.597 4.91461 144.98 4.91461C146.855 4.91461 147.804 6.00965 147.804 8.17345V14.6356H148.767V8.08876C148.767 5.51324 147.418 4.03274 145.065 4.03274V4.0415ZM155.022 8.90347C153.054 8.40705 151.977 8.24061 151.977 6.874C151.977 5.50739 153.302 4.86497 154.692 4.86497C156.442 4.86497 157.545 5.65048 157.802 7.34414H158.719C158.421 5.12778 157.002 4.0561 154.713 4.0561C152.87 4.0561 151.045 4.75985 151.045 6.93532C151.045 8.88303 152.517 9.13124 154.835 9.71234C156.929 10.2088 157.922 10.4774 157.922 11.8469C157.922 13.4209 156.596 14.0428 155.002 14.0428C153.025 14.0428 151.796 13.0354 151.6 11.1695H150.663C150.882 13.5172 152.426 14.8692 154.981 14.8692C157.198 14.8692 158.856 13.8968 158.856 11.8031C158.856 9.85542 157.385 9.48165 155.022 8.90347ZM96.4247 0.137329H92.1321V14.6444H96.3225C100.927 14.6444 103.515 11.8732 103.515 7.39086C103.515 2.9085 100.948 0.137329 96.4247 0.137329ZM96.3225 13.7246H93.1542V1.05716H96.4247C100.3 1.05716 102.431 3.30564 102.431 7.39086C102.431 11.4761 100.203 13.7246 96.3225 13.7246ZM108.038 5.05478C107.285 5.65048 106.756 6.47979 106.449 7.53686V4.27219H105.579V14.6444H106.473V10.3372C106.473 9.26264 106.66 8.31945 107.036 7.50766C107.413 6.69588 107.921 6.12062 108.561 5.68844C109.2 5.25627 109.904 5.04018 110.672 5.04018H111.142V4.15831H110.648C109.662 4.15831 108.788 4.45616 108.035 5.05186L108.038 5.05478Z" fill="#F7235B"></path><path d="M159.51 2.46456H158.821V2.20175H160.474V2.46456H159.782V4.24582H159.51V2.46456ZM160.874 2.20175H161.198L161.928 3.92169L162.658 2.20175H162.997V4.24582H162.723V2.69817L162.068 4.24582H161.788L161.143 2.73029V4.24582H160.871V2.20175H160.874Z" fill="#F7235B"></path></g><defs><clipPath id="clip0_2170_117"><rect width="163" height="14.913" fill="white"></rect></clipPath></defs></svg>