<svg xmlns:xlink="http://www.w3.org/1999/xlink" aria-label="Procreate® Pocket" class="home-product-tile__wordmark pocket-wordmark home-product-tile__wordmark" style="color:white;" aria-hidden="true" width="155" height="16" viewBox="0 0 155 16" fill="none" xmlns="http://www.w3.org/2000/svg"><path fill-rule="evenodd" clip-rule="evenodd" d="M128.606 16V0.557617H129.959V10.1245H130.093L135.466 4.95654H137.147L132.174 9.63232L137.373 16H135.65L131.2 10.5449L129.959 11.7139V16H128.606ZM149.954 13.252C149.954 15.2617 150.826 16.0718 152.938 16.0718C153.266 16.0718 153.574 16.041 153.881 15.9897V14.8208C153.604 14.8516 153.399 14.8618 153.092 14.8618C151.841 14.8618 151.359 14.2979 151.359 12.9443V6.09473H153.881V4.95654H151.359V2.08545H149.954V4.95654H148.18V6.09473H149.954V13.252ZM137.696 10.5142C137.696 13.98 139.603 16.1846 142.7 16.1846C145.14 16.1846 146.75 14.8516 147.181 13.3545L147.211 13.2725H145.848L145.807 13.3442C145.448 14.2056 144.34 14.9644 142.73 14.9644C140.536 14.9644 139.121 13.416 139.08 10.832H147.375V10.2578C147.375 6.98682 145.55 4.77197 142.587 4.77197C139.624 4.77197 137.696 7.04834 137.696 10.4937V10.5142ZM139.09 9.72461C139.265 7.33545 140.68 5.98193 142.587 5.98193C144.484 5.98193 145.848 7.27393 146.001 9.72461H139.09ZM117.199 10.4526C117.199 13.9492 119.137 16.1846 122.182 16.1846C124.705 16.1846 126.243 14.8413 126.673 12.8931L126.694 12.811L125.34 12.8213L125.32 12.8726C124.93 14.2056 123.802 14.9746 122.172 14.9746C119.988 14.9746 118.583 13.2007 118.583 10.4526V10.4321C118.583 7.71484 119.978 5.98193 122.172 5.98193C123.864 5.98193 125.012 6.91504 125.34 8.18652L125.351 8.21729L126.694 8.20703V8.16602C126.355 6.22803 124.705 4.77197 122.172 4.77197C119.126 4.77197 117.199 6.98682 117.199 10.4321V10.4526ZM110.826 16.1846C107.74 16.1846 105.812 14.0005 105.812 10.4834V10.4629C105.812 6.9458 107.74 4.77197 110.826 4.77197C113.913 4.77197 115.851 6.9458 115.851 10.4629V10.4834C115.851 14.0005 113.913 16.1846 110.826 16.1846ZM110.826 14.9746C113.103 14.9746 114.456 13.2725 114.456 10.4834V10.4629C114.456 7.67383 113.103 5.98193 110.826 5.98193C108.55 5.98193 107.196 7.67383 107.196 10.4629V10.4834C107.196 13.2725 108.55 14.9746 110.826 14.9746ZM94.897 1.20361V16H96.3018V10.4219H100.147C102.967 10.4219 104.895 8.55566 104.895 5.80762V5.78711C104.895 3.03906 102.967 1.20361 100.147 1.20361H94.897ZM96.3018 2.45459H99.8188C102.095 2.45459 103.469 3.71582 103.469 5.79736V5.81787C103.469 7.90967 102.095 9.1709 99.8188 9.1709H96.3018V2.45459Z" fill="#FFFFFF"></path><path fill-rule="evenodd" clip-rule="evenodd" d="M90.2777 2.79162C90.2777 3.78697 89.5055 4.51005 88.5682 4.51005C87.6308 4.51005 86.8721 3.7959 86.8721 2.80501C86.8721 1.81413 87.6442 1.09998 88.5816 1.09998C89.5189 1.09998 90.2777 1.8052 90.2777 2.79162ZM89.9652 2.80055C89.9652 1.9882 89.327 1.39903 88.5771 1.39903C87.8272 1.39903 87.1756 1.9882 87.1756 2.80501C87.1756 3.62182 87.8139 4.20653 88.5637 4.20653C89.3136 4.20653 89.9652 3.61736 89.9652 2.80055ZM88.961 2.86304L89.4341 3.66199H89.0592L88.6619 2.88982H88.1932V3.66199H87.8763V1.87662H88.7824C89.1216 1.87662 89.3627 2.08193 89.3627 2.36313C89.3627 2.60416 89.202 2.79609 88.961 2.85857V2.86304ZM88.1977 2.61755H88.7556C88.9342 2.61755 89.0592 2.51935 89.0592 2.37652C89.0592 2.25154 88.9476 2.15781 88.7824 2.15781H88.1932V2.61755H88.1977ZM6.3738 10.4153C9.46163 10.4153 11.4655 8.4302 11.4666 5.80233C11.4655 3.17005 9.46163 1.25185 6.3738 1.25185H0V15.8652H3.27617V10.4153H6.3738ZM5.8739 3.71121C7.3771 3.71121 8.25178 4.66961 8.25291 5.79791C8.25178 6.96633 7.3771 7.94702 5.8739 7.94702H3.27617V3.71121H5.8739ZM25.1381 16.1329C28.517 16.1329 30.6683 13.861 30.6683 10.5402C30.6683 7.264 28.4991 4.98764 25.1381 4.98764C21.7772 4.98764 19.6258 7.22383 19.6258 10.5402C19.6258 13.8565 21.7593 16.1329 25.1381 16.1329ZM25.1337 13.7762C23.4643 13.7762 22.5047 12.4193 22.5047 10.5402C22.5047 8.70123 23.442 7.34434 25.1337 7.34434C26.8253 7.34434 27.785 8.66106 27.785 10.5402C27.785 12.4193 26.803 13.7762 25.1337 13.7762ZM36.9507 16.0927C33.8186 16.0916 31.8824 13.7754 31.8824 10.6428C31.8824 7.50948 33.824 5.19295 36.9529 5.19295C39.6443 5.19295 41.336 6.82211 41.693 9.03598H39.9389C39.6443 7.67909 38.707 6.65696 36.9529 6.65696C34.8015 6.65696 33.5517 8.34861 33.5517 10.6428C33.5517 12.937 34.8059 14.6287 36.9529 14.6287C38.8097 14.6287 39.7916 13.4994 40.0416 11.9997H41.7511C41.4789 14.3558 39.7702 16.0918 36.9507 16.0927ZM54.3648 5.19295C51.3386 5.19295 49.2943 7.49163 49.2943 10.7053L49.2988 10.7098C49.2988 13.8029 51.2002 16.0972 54.3291 16.0972C56.6858 16.0972 58.4399 14.7581 59.0246 12.5264H57.1232C56.6233 14.0261 55.4539 14.6331 54.2844 14.6331C52.4678 14.6331 51.2136 13.1915 51.0886 11.0847V10.9999H59.105V10.6428C59.105 7.50948 57.391 5.19295 54.3648 5.19295ZM54.3469 6.6525C56.2439 6.6525 57.333 7.9469 57.3731 9.70104H51.1332C51.4457 7.82192 52.5526 6.6525 54.3469 6.6525ZM69.1923 9.0583V15.8651H67.523V14.218H67.4828C66.9829 15.0125 65.7064 15.9722 63.8094 15.9722C61.7652 15.9722 60.4083 14.8251 60.4083 12.9861C60.4083 11.0044 61.8901 9.5225 66.0858 9.5225H67.5275V9.06277C67.5275 7.5809 66.5902 6.66143 65.0637 6.66143C63.622 6.66143 62.6623 7.45593 62.582 8.72801H60.8725C60.935 6.55877 62.5418 5.20188 65.0681 5.20188C67.5944 5.20188 69.2013 6.68375 69.2013 9.06277L69.1923 9.0583ZM67.523 11.8346V10.8526H66.0813C62.9926 10.8526 62.0732 11.7721 62.0732 12.9415C62.0732 13.9859 62.8855 14.5885 64.1799 14.5885C66.0144 14.5885 67.5186 13.2718 67.5186 11.8346H67.523ZM83.1852 5.19295C80.159 5.19295 78.1148 7.49163 78.1148 10.7053L78.1192 10.7098C78.1192 13.8029 80.0207 16.0972 83.1495 16.0972C85.5062 16.0972 87.2604 14.7581 87.8451 12.5264H85.9437C85.4438 14.0261 84.2743 14.6331 83.1049 14.6331C81.2883 14.6331 80.0341 13.1915 79.9091 11.0847V10.9999H87.9254V10.6428C87.9254 7.50948 86.2115 5.19295 83.1852 5.19295ZM83.1674 6.6525C85.0644 6.6525 86.1535 7.9469 86.1936 9.70104H79.9537C80.2662 7.82192 81.3731 6.6525 83.1674 6.6525ZM49.031 5.38488C47.2054 5.55449 45.8084 6.31774 45.0808 7.97368V5.42952H43.3713V15.8651H45.0808V11.3793C45.0808 8.51376 46.3975 7.22382 49.031 7.24614V5.38488ZM15.4435 7.92905C16.0461 6.17491 17.3092 5.36703 19.1839 5.19295V5.19742V8.15222C16.4255 8.07634 15.4435 9.30379 15.4435 11.8747V15.8606H12.5021V5.25544H15.4435V7.92905ZM77.7354 6.8846V6.88906L77.7398 6.8846H77.7354ZM77.7354 5.42952V6.8846H73.9191V12.4148C73.9191 13.7717 74.6467 14.5037 76.0259 14.5037C76.4365 14.5037 76.9096 14.4501 77.4185 14.2761V15.7936C77.0034 15.932 76.5347 16.0079 76.0259 16.0079C73.687 16.0079 72.2052 14.6331 72.2052 12.4193V6.88906H70.0136V5.43398H70.6876H70.9241H71.5401C71.9061 5.43398 72.2052 5.13493 72.2052 4.76893V2.0864H73.9147V5.42952H77.7354Z" fill="#FFFFFF"></path></svg>